<?xml version="1.0" encoding="utf-8"?>
<!-- Generator: Adobe Illustrator 16.0.0, SVG Export Plug-In . SVG Version: 6.00 Build 0)  -->
<!DOCTYPE svg PUBLIC "-//W3C//DTD SVG 1.1//EN" "http://www.w3.org/Graphics/SVG/1.1/DTD/svg11.dtd">
<svg version="1.1" id="Layer_1" xmlns="http://www.w3.org/2000/svg" xmlns:xlink="http://www.w3.org/1999/xlink" x="0px" y="0px"
	 width="660px" height="65px" viewBox="0 0 660 65" enable-background="new 0 0 660 65" xml:space="preserve">
<g opacity="0.9">
	<g>
		<g>
			<g>
				<path fill="#5E3821" d="M22.944,4.115c10.051,0,17.53,5.712,17.53,15.037c0,5.712-2.896,10.215-7.719,12.707
					c5.709,2.009,9.488,6.754,9.488,13.506c0,9.652-7.64,15.521-18.334,15.521H8.629c-1.527,0-2.813-1.289-2.813-2.814V6.526
					c0-1.286,1.125-2.411,2.493-2.411H8.47c1.286,0,2.411,1.125,2.411,2.411v49.615h12.708c8.28,0,13.587-4.181,13.587-10.935
					c0-5.953-3.779-10.697-12.622-10.697h-8.929c-1.204,0-2.169-0.963-2.169-2.172V32.18c0-1.207,0.965-2.172,2.169-2.172h9.492
					c5.307,0,10.368-4.182,10.368-10.856c0-6.432-5.307-10.292-12.861-10.292h-6.834c-1.29,0-2.333-1.047-2.333-2.333v-0.16
					c0-1.204,1.043-2.251,2.333-2.251H22.944z"/>
			</g>
		</g>
		<g>
			<g>
				<path fill="#5E3821" d="M213.834,58.393c0,1.368-1.126,2.494-2.493,2.494h-0.16c-1.368,0-2.494-1.126-2.494-2.494V6.608
					c0-1.368,1.126-2.493,2.494-2.493h0.16c1.367,0,2.493,1.125,2.493,2.493V58.393z"/>
			</g>
		</g>
		<g>
			<g>
				<path fill="#5E3821" d="M391.636,57.555c0,1.368-1.126,2.494-2.493,2.494h-0.161c-1.367,0-2.492-1.126-2.492-2.494V5.771
					c0-1.369,1.125-2.494,2.492-2.494h0.161c1.367,0,2.493,1.125,2.493,2.494V57.555z"/>
			</g>
		</g>
		<g>
			<g>
				<path fill="#5E3821" d="M388.949,8.424c-1.367,0-2.493-1.125-2.493-2.493V5.771c0-1.369,1.126-2.494,2.493-2.494h14.933
					c1.367,0,2.493,1.125,2.493,2.494v0.159c0,1.368-1.126,2.493-2.493,2.493H388.949z"/>
			</g>
		</g>
		<g>
			<g>
				<path fill="#5E3821" d="M291.487,58.393c0,1.368-1.125,2.494-2.494,2.494h-0.16c-1.368,0-2.493-1.126-2.493-2.494V6.608
					c0-1.368,1.125-2.493,2.493-2.493h0.16c1.368,0,2.494,1.125,2.494,2.493V58.393z"/>
			</g>
		</g>
		<g>
			<g>
				<path fill="#5E3821" d="M326.673,58.393c0,1.368-1.126,2.494-2.494,2.494h-0.161c-1.367,0-2.493-1.126-2.493-2.494V13.309
					c0-1.367,1.125-2.493,2.493-2.493h0.161c1.368,0,2.494,1.125,2.494,2.493V58.393z"/>
			</g>
		</g>
		<g>
			<g>
				<path fill="#5E3821" d="M487.953,50.641c-1.079-1.084-1.199-2.561-0.285-3.812c6.993-9.498,6.081-22.912-2.507-31.497
					c-8.584-8.585-21.999-9.501-31.498-2.51c-1.251,0.912-2.729,0.798-3.809-0.282l-0.056-0.055c-0.91-0.913-0.797-2.5,0.229-3.298
					c11.484-8.984,28.2-8.075,38.776,2.503c10.575,10.574,11.487,27.29,2.504,38.777c-0.798,1.023-2.39,1.135-3.299,0.229
					L487.953,50.641z M448.031,14.362c1.081,1.081,1.197,2.556,0.283,3.805c-6.989,9.501-6.078,22.919,2.508,31.505
					c8.584,8.584,22.001,9.497,31.5,2.502c1.25-0.912,2.727-0.791,3.81,0.287l0.054,0.057c0.908,0.909,0.797,2.5-0.225,3.295
					c-11.488,8.987-28.207,8.074-38.782-2.5c-10.575-10.578-11.486-27.293-2.501-38.78c0.798-1.02,2.387-1.135,3.297-0.225
					L448.031,14.362z"/>
			</g>
		</g>
		<g>
			<g>
				<g>
					<path fill="#5E3821" d="M75.511,34.463h-8.425c-1.296,0-2.346-1.049-2.346-2.345c0-1.294,1.05-2.345,2.346-2.345h8.425
						c5.646,0,11.739-3.828,11.739-10.012c0-5.552-3.744-11.157-12.103-11.157h-8.062c-1.296,0-2.346-1.047-2.346-2.343
						c0-1.295,1.05-2.349,2.346-2.349h8.062c9.888,0,16.794,6.518,16.794,15.849C91.942,28.843,83.412,34.463,75.511,34.463z"/>
				</g>
			</g>
		</g>
		<g>
			<g>
				<g>
					<path fill="#5E3821" d="M59.021,61.223c-1.387,0-2.513-1.124-2.513-2.512V6.261c0-1.387,1.125-2.512,2.513-2.512
						c1.387,0,2.512,1.125,2.512,2.512v52.45C61.534,60.099,60.408,61.223,59.021,61.223z"/>
				</g>
			</g>
		</g>
		<g>
			<g>
				<g>
					<path fill="#5E3821" d="M90.78,61.057c-0.824,0-1.626-0.438-2.055-1.211L73.979,33.253c-0.628-1.132-0.219-2.559,0.913-3.187
						c1.148-0.629,2.562-0.216,3.19,0.916l14.746,26.593c0.628,1.133,0.219,2.559-0.913,3.188
						C91.552,60.961,91.163,61.057,90.78,61.057z"/>
				</g>
			</g>
		</g>
		<g>
			<g>
				<g>
					<path fill="#5E3821" d="M150.653,61.057c-0.281,0-0.566-0.053-0.841-0.157c-1.21-0.464-1.812-1.822-1.348-3.028l20.592-52.565
						c0.468-1.21,1.836-1.805,3.03-1.348c1.211,0.464,1.813,1.826,1.348,3.032l-20.592,52.562
						C152.483,60.484,151.595,61.057,150.653,61.057z"/>
				</g>
			</g>
		</g>
		<g>
			<g>
				<g>
					<path fill="#5E3821" d="M194.845,61.057c-0.949,0-1.842-0.582-2.196-1.518l-18.25-47.395c-0.454-1.211,0.157-2.565,1.372-3.021
						c1.21-0.455,2.565,0.157,3.02,1.371l18.25,47.388c0.454,1.213-0.157,2.565-1.371,3.023
						C195.397,61.008,195.12,61.057,194.845,61.057z"/>
				</g>
			</g>
		</g>
		<g>
			<g>
				<g>
					<path fill="#5E3821" d="M158.758,35.514h21.015c1.207,0,2.254,1.048,2.254,2.252v0.16c0,1.288-1.047,2.336-2.254,2.336h-21.015
						"/>
				</g>
			</g>
		</g>
		<g>
			<g>
				<path fill="#5E3821" d="M111.17,34.496v23.881c0,1.367-1.125,2.496-2.493,2.496h-0.161c-1.367,0-2.493-1.129-2.493-2.496V6.591
					c0-1.367,1.125-2.492,2.493-2.492h0.161c1.368,0,2.493,1.125,2.493,2.492v23.162h24.365c1.208,0,2.254,1.04,2.254,2.251v0.16
					c0,1.285-1.047,2.332-2.254,2.332H111.17z M116.075,8.924c-1.286,0-2.33-1.047-2.33-2.333V6.432c0-1.29,1.044-2.333,2.33-2.333
					h20.264c1.286,0,2.333,1.043,2.333,2.333v0.159c0,1.286-1.047,2.333-2.333,2.333H116.075z M116.075,60.873
					c-1.286,0-2.33-1.047-2.33-2.335v-0.161c0-1.285,1.044-2.333,2.33-2.333H136.5c1.29,0,2.333,1.048,2.333,2.333v0.161
					c0,1.288-1.043,2.335-2.333,2.335H116.075z"/>
			</g>
		</g>
		<g>
			<g>
				<path fill="#5E3821" d="M307.264,8.924c-1.286,0-2.33-1.047-2.33-2.333V6.432c0-1.29,1.044-2.333,2.33-2.333h33.666
					c1.285,0,2.333,1.043,2.333,2.333v0.159c0,1.286-1.048,2.333-2.333,2.333H307.264z"/>
			</g>
		</g>
		<g>
			<g>
				<path fill="#5E3821" d="M243.424,61.528c-0.675,0-1.347-0.269-1.84-0.802l-24.708-26.586c-0.857-0.923-0.9-2.336-0.098-3.309
					l21.358-25.918c0.878-1.077,2.464-1.228,3.537-0.344c1.07,0.883,1.224,2.466,0.34,3.536l-19.959,24.224l23.211,24.973
					c0.945,1.019,0.887,2.607-0.129,3.554C244.651,61.305,244.037,61.528,243.424,61.528z"/>
			</g>
		</g>
		<g>
			<g>
				<path fill="#5E3821" d="M530.756,61.528c-0.994,0-1.938-0.596-2.331-1.577L507.066,6.785c-0.519-1.286,0.106-2.751,1.395-3.268
					c1.28-0.51,2.749,0.104,3.268,1.397l21.358,53.166c0.518,1.285-0.106,2.75-1.394,3.268
					C531.385,61.469,531.068,61.528,530.756,61.528z"/>
			</g>
		</g>
		<g>
			<g>
				<path fill="#5E3821" d="M651.674,61.528c-0.717,0-1.43-0.306-1.927-0.896L609.53,12.749v46.266c0,1.388-1.127,2.514-2.513,2.514
					c-1.389,0-2.514-1.126-2.514-2.514V5.849c0-1.057,0.661-2,1.651-2.362c0.991-0.36,2.106-0.066,2.786,0.746l44.653,53.166
					c0.894,1.064,0.754,2.646-0.308,3.54C652.816,61.335,652.243,61.528,651.674,61.528z"/>
			</g>
		</g>
		<g>
			<g>
				<path fill="#5E3821" d="M651.671,48.127c-1.386,0-2.512-1.125-2.512-2.514V5.849c0-1.387,1.126-2.513,2.512-2.513
					c1.388,0,2.513,1.126,2.513,2.513v39.764C654.184,47.002,653.059,48.127,651.671,48.127z"/>
			</g>
		</g>
		<g>
			<g>
				<path fill="#5E3821" d="M568.868,61.528c-0.995,0-1.938-0.596-2.333-1.577L550.679,20.48c-0.52-1.286,0.106-2.75,1.393-3.268
					c1.295-0.51,2.753,0.112,3.27,1.398l15.858,39.47c0.516,1.285-0.108,2.75-1.396,3.268
					C569.496,61.469,569.178,61.528,568.868,61.528z"/>
			</g>
		</g>
		<g>
			<g>
				<path fill="#5E3821" d="M401.724,59.44c0.005-1.527,0.963-2.657,2.496-2.896c11.659-1.771,20.5-11.902,20.498-24.044
					c0-12.141-8.839-22.274-20.497-24.047c-1.532-0.24-2.495-1.364-2.495-2.893V5.483c0.003-1.29,1.205-2.33,2.494-2.173
					c14.474,1.771,25.648,14.232,25.647,29.191c0.001,14.955-11.173,27.421-25.646,29.191c-1.289,0.16-2.492-0.887-2.497-2.172
					V59.44z"/>
			</g>
		</g>
		<g>
			<g>
				<path fill="#5E3821" d="M568.866,61.528c-0.312,0-0.63-0.06-0.937-0.181c-1.288-0.518-1.912-1.982-1.395-3.268l21.358-53.166
					c0.517-1.293,1.977-1.908,3.269-1.397c1.286,0.517,1.911,1.982,1.394,3.268l-21.356,53.167
					C570.804,60.933,569.86,61.528,568.866,61.528z"/>
			</g>
		</g>
		<g>
			<g>
				<path fill="#5E3821" d="M534.204,49.818c-0.312,0-0.629-0.059-0.937-0.181c-1.288-0.516-1.911-1.981-1.394-3.269l16.653-41.455
					c0.516-1.293,1.979-1.908,3.269-1.397c1.287,0.517,1.912,1.982,1.395,3.268l-16.654,41.458
					C536.145,49.223,535.2,49.818,534.204,49.818z"/>
			</g>
		</g>
	</g>
</g>
</svg>
