<?xml version="1.0" encoding="utf-8"?>
<!-- Generator: Adobe Illustrator 16.0.0, SVG Export Plug-In . SVG Version: 6.00 Build 0)  -->
<!DOCTYPE svg PUBLIC "-//W3C//DTD SVG 1.1//EN" "http://www.w3.org/Graphics/SVG/1.1/DTD/svg11.dtd">
<svg version="1.1" id="Layer_1" xmlns="http://www.w3.org/2000/svg" xmlns:xlink="http://www.w3.org/1999/xlink" x="0px" y="0px"
	 width="340px" height="340px" viewBox="0 0 340 340" enable-background="new 0 0 340 340" xml:space="preserve">
<g>
	<g>
		<path fill="#FFFFFF" d="M25.238,86.786c-0.561,0.972-1.133,1.937-1.674,2.923v19.561l1.674-0.593V86.786z"/>
		<path fill="#FFFFFF" d="M42.828,61.833c-0.557,0.653-1.129,1.293-1.674,1.954v39.253l1.674-0.593V61.833z"/>
		<path fill="#FFFFFF" d="M46.348,57.82c-0.561,0.617-1.123,1.231-1.674,1.857v42.115l1.674-0.593V57.82z"/>
		<path fill="#FFFFFF" d="M35.793,70.684c-0.561,0.757-1.125,1.514-1.674,2.28v32.567l1.674-0.592V70.684z"/>
		<path fill="#FFFFFF" d="M28.756,80.952c-0.561,0.891-1.129,1.781-1.674,2.683v24.389l1.674-0.593V80.952z"/>
		<path fill="#FFFFFF" d="M32.275,75.612c-0.564,0.82-1.129,1.639-1.676,2.47v28.696l1.676-0.594V75.612z"/>
		<path fill="#FFFFFF" d="M39.312,66.105c-0.561,0.701-1.127,1.396-1.676,2.109v36.071l1.676-0.594V66.105z"/>
		<path fill="#FFFFFF" d="M55.227,98.055l1.674-0.593V47.191c-0.561,0.518-1.119,1.037-1.674,1.562V98.055z"/>
		<path fill="#FFFFFF" d="M49.867,54.043c-0.568,0.586-1.117,1.187-1.676,1.78v44.724l1.676-0.593V54.043z"/>
		<path fill="#FFFFFF" d="M62.266,97.619l1.674,2.581V41.044c-0.562,0.463-1.119,0.932-1.674,1.403V97.619z"/>
		<path fill="#FFFFFF" d="M67.453,38.225c-0.562,0.44-1.115,0.896-1.674,1.344v63.473l1.674,2.582V38.225z"/>
		<path fill="#FFFFFF" d="M60.418,44.043c-0.555,0.485-1.125,0.956-1.674,1.448V96.81l1.674-0.593V44.043z"/>
		<path fill="#FFFFFF" d="M53.383,50.508c-0.566,0.553-1.113,1.122-1.674,1.684v47.109l1.674-0.592V50.508z"/>
		<path fill="#FFFFFF" d="M18.201,100.384c-0.578,1.259-1.127,2.533-1.674,3.809v7.57l1.674-0.594V100.384z"/>
		<polygon fill="#FFFFFF" points="190.588,21.938 188.914,19.755 188.914,62.771 190.588,60.706 		"/>
		<polygon fill="#FFFFFF" points="187.07,17.354 185.396,15.172 185.396,67.11 187.07,65.045 		"/>
		<polygon fill="#FFFFFF" points="180.033,8.186 178.359,6.003 178.359,75.787 180.033,73.722 		"/>
		<polygon fill="#FFFFFF" points="183.553,12.77 181.877,10.587 181.877,71.448 183.553,69.384 		"/>
		<path fill="#FFFFFF" d="M21.721,93.215c-0.566,1.092-1.131,2.187-1.674,3.292v14.009l1.674-0.594V93.215z"/>
		<path fill="#FFFFFF" d="M176.518,78.061V3.601l-0.352-0.458c-0.441-0.016-0.883-0.013-1.324-0.026v75.932
			c0.279,0.016,0.562,0.024,0.842,0.041L176.518,78.061z"/>
		<path fill="#FFFFFF" d="M171.322,78.919c0.561,0.011,1.119,0.016,1.674,0.036V3.079c-0.557-0.012-1.113-0.028-1.674-0.033V78.919z
			"/>
		<polygon fill="#FFFFFF" points="204.662,40.275 202.986,38.093 202.986,45.416 204.662,43.35 		"/>
		<path fill="#FFFFFF" d="M70.975,35.575c-0.559,0.413-1.121,0.823-1.674,1.242v71.649l1.674,2.583V35.575z"/>
		<path fill="#FFFFFF" d="M13.012,113.007l1.674-0.593v-3.771c-0.572,1.442-1.145,2.887-1.674,4.349V113.007z"/>
		<polygon fill="#FFFFFF" points="194.105,26.521 192.432,24.339 192.432,58.433 194.105,56.367 		"/>
		<polygon fill="#FFFFFF" points="197.623,31.105 195.949,28.924 195.949,54.094 197.623,52.029 		"/>
		<polygon fill="#FFFFFF" points="201.141,35.689 199.467,33.508 199.467,49.756 201.141,47.69 		"/>
		<path fill="#FFFFFF" d="M92.082,22.31c-0.559,0.296-1.121,0.586-1.674,0.888v102.457c0.541-0.97,1.098-1.93,1.674-2.876V22.31z"/>
		<path fill="#FFFFFF" d="M141.336,5.498c-0.559,0.097-1.119,0.199-1.674,0.302v78.271c0.553-0.195,1.115-0.374,1.674-0.559V5.498z"
			/>
		<path fill="#FFFFFF" d="M137.816,6.131c-0.559,0.109-1.117,0.223-1.674,0.337v78.936c0.555-0.223,1.115-0.433,1.674-0.646V6.131z"
			/>
		<path fill="#FFFFFF" d="M144.854,4.922c-0.559,0.084-1.119,0.156-1.674,0.245v77.744c0.553-0.17,1.115-0.325,1.674-0.485V4.922z"
			/>
		<path fill="#FFFFFF" d="M130.779,7.652c-0.561,0.134-1.113,0.294-1.674,0.434v80.498c0.557-0.281,1.113-0.564,1.674-0.834V7.652z"
			/>
		<path fill="#FFFFFF" d="M148.373,4.431c-0.561,0.073-1.119,0.155-1.676,0.233V81.91c0.555-0.146,1.115-0.282,1.676-0.418V4.431z"
			/>
		<path fill="#FFFFFF" d="M134.299,6.875c-0.559,0.122-1.119,0.243-1.674,0.37v79.659c0.555-0.25,1.113-0.496,1.674-0.735V6.875z"/>
		<path fill="#FFFFFF" d="M162.443,3.2c-0.561,0.024-1.115,0.068-1.674,0.099v76.072c0.557-0.056,1.113-0.112,1.674-0.16V3.2z"/>
		<path fill="#FFFFFF" d="M74.49,33.042c-0.557,0.39-1.121,0.771-1.674,1.167v79.68l1.674,2.582V33.042z"/>
		<path fill="#FFFFFF" d="M165.961,3.099c-0.557,0.012-1.119,0.014-1.674,0.032v75.955c0.557-0.035,1.113-0.07,1.674-0.095V3.099z"
			/>
		<path fill="#FFFFFF" d="M169.479,3.027c-0.561,0.003-1.115,0.027-1.674,0.034v75.875c0.559-0.014,1.115-0.028,1.674-0.032V3.027z"
			/>
		<path fill="#FFFFFF" d="M151.891,4.016c-0.557,0.06-1.119,0.101-1.676,0.167v76.878c0.557-0.122,1.115-0.24,1.676-0.354V4.016z"/>
		<path fill="#FFFFFF" d="M158.926,3.409c-0.557,0.037-1.119,0.058-1.674,0.1v76.285c0.555-0.079,1.113-0.155,1.674-0.224V3.409z"/>
		<path fill="#FFFFFF" d="M155.408,3.665c-0.561,0.05-1.115,0.113-1.674,0.168v76.523c0.555-0.102,1.113-0.198,1.674-0.288V3.665z"
			/>
		<path fill="#FFFFFF" d="M127.262,8.57c-0.555,0.147-1.117,0.285-1.674,0.438V90.45c0.557-0.312,1.113-0.622,1.674-0.922V8.57z"/>
		<path fill="#FFFFFF" d="M86.889,132.676c0.535-1.188,1.09-2.365,1.676-3.527V24.203c-0.564,0.314-1.115,0.648-1.676,0.971V132.676
			z"/>
		<path fill="#FFFFFF" d="M85.045,26.241c-0.557,0.331-1.121,0.65-1.674,0.986v102.938l1.674,2.582V26.241z"/>
		<path fill="#FFFFFF" d="M95.602,20.485c-0.559,0.28-1.119,0.562-1.676,0.848v98.528c0.545-0.824,1.107-1.635,1.676-2.439V20.485z"
			/>
		<path fill="#FFFFFF" d="M81.527,28.392c-0.559,0.351-1.119,0.701-1.674,1.057v95.292l1.674,2.582V28.392z"/>
		<path fill="#FFFFFF" d="M78.01,30.63c-0.564,0.374-1.115,0.768-1.674,1.147v87.539l1.674,2.581V30.63z"/>
		<path fill="#FFFFFF" d="M123.744,9.521c-0.559,0.161-1.113,0.341-1.674,0.509v82.482c0.555-0.343,1.115-0.671,1.674-1.003V9.521z"
			/>
		<path fill="#FFFFFF" d="M99.117,18.79c-0.561,0.265-1.117,0.539-1.674,0.809v95.316c0.545-0.719,1.107-1.426,1.674-2.128V18.79z"
			/>
		<path fill="#FFFFFF" d="M116.707,11.728c-0.559,0.189-1.115,0.387-1.674,0.581v85.051c0.557-0.421,1.109-0.844,1.674-1.251V11.728
			z"/>
		<path fill="#FFFFFF" d="M102.639,17.195c-0.559,0.246-1.121,0.479-1.676,0.73v92.653c0.549-0.64,1.105-1.271,1.676-1.894V17.195z"
			/>
		<path fill="#FFFFFF" d="M120.229,10.591c-0.557,0.173-1.121,0.33-1.676,0.51v83.714c0.553-0.379,1.113-0.749,1.676-1.116V10.591z"
			/>
		<path fill="#FFFFFF" d="M107.998,103.27c0.553-0.514,1.109-1.02,1.674-1.519v-87.47c-0.559,0.217-1.117,0.433-1.674,0.655V103.27z
			"/>
		<path fill="#FFFFFF" d="M106.156,15.662c-0.566,0.233-1.115,0.49-1.676,0.73v90.319c0.551-0.57,1.107-1.135,1.676-1.69V15.662z"/>
		<path fill="#FFFFFF" d="M113.189,12.948c-0.559,0.203-1.117,0.404-1.674,0.613v86.59c0.551-0.462,1.113-0.913,1.674-1.362V12.948z
			"/>
	</g>
	<g>
		<path fill="#FFFFFF" d="M207.531,7.296c-2.938-0.675-5.902-1.271-8.895-1.788l-9.664,14.325l5.377,7.004L207.531,7.296z"/>
		<path fill="#FFFFFF" d="M218.967,10.36c-2.803-0.858-5.633-1.661-8.496-2.374L196.16,29.198l5.375,7.004L218.967,10.36z"/>
		<path fill="#FFFFFF" d="M240.438,18.573c-2.57-1.197-5.186-2.307-7.822-3.375l-44.248,65.588c2.926,0.599,5.801,1.33,8.613,2.202
			L240.438,18.573z"/>
		<path fill="#FFFFFF" d="M229.928,14.134c-2.682-1.032-5.393-2.009-8.139-2.904L203.35,38.563l2.523,3.292L177.621,76.7
			l-1.631,2.415c3.166,0.205,6.285,0.585,9.354,1.105L229.928,14.134z"/>
		<path fill="#FFFFFF" d="M195.576,4.994c-3.078-0.473-6.191-0.845-9.324-1.147l-4.465,6.621l5.375,7.002L195.576,4.994z"/>
		<path fill="#FFFFFF" d="M303.689,69.992L256.16,140.45c0.912,2.659,1.719,5.365,2.383,8.129l1.773,0.682l48.553-71.974
			C307.209,74.807,305.479,72.378,303.689,69.992z"/>
		<path fill="#FFFFFF" d="M271.582,37.511l-42.574,63.109c2.154,1.834,4.213,3.775,6.188,5.8l42.934-63.643
			C275.998,40.964,273.805,39.218,271.582,37.511z"/>
		<path fill="#FFFFFF" d="M176.166,3.143l3.809,4.963l3.082-4.57C180.771,3.359,178.477,3.228,176.166,3.143z"/>
		<path fill="#FFFFFF" d="M250.482,23.701c-2.459-1.354-4.955-2.643-7.484-3.875l-43.23,64.082c2.713,0.938,5.373,1.986,7.963,3.165
			L250.482,23.701z"/>
		<path fill="#FFFFFF" d="M301.881,67.626c-1.787-2.303-3.625-4.567-5.529-6.771l-45.422,67.325
			c1.506,2.907,2.846,5.911,4.035,8.989L301.881,67.626z"/>
		<path fill="#FFFFFF" d="M260.113,29.447c-2.348-1.51-4.73-2.973-7.158-4.363l-42.65,63.224c2.52,1.245,4.975,2.602,7.355,4.066
			L260.113,29.447z"/>
		<path fill="#FFFFFF" d="M321.193,99.059c-1.359-2.896-2.826-5.728-4.346-8.528l-43.105,63.895l8.02,3.083L321.193,99.059z"/>
		<path fill="#FFFFFF" d="M326.385,111.382c-1.178-3.146-2.475-6.233-3.836-9.287l-38.084,56.454l8.02,3.083L326.385,111.382z"/>
		<path fill="#FFFFFF" d="M330.436,123.591c-0.869-3.008-1.848-5.966-2.879-8.899l-32.367,47.98l6.637,2.553L330.436,123.591z"/>
		<path fill="#FFFFFF" d="M315.326,87.734c-1.516-2.676-3.127-5.291-4.789-7.872L263.02,150.3l8.02,3.084L315.326,87.734z"/>
		<path fill="#FFFFFF" d="M269.332,35.801c-2.24-1.661-4.521-3.273-6.846-4.823L220.045,93.89c2.336,1.538,4.592,3.191,6.77,4.933
			L269.332,35.801z"/>
		<path fill="#FFFFFF" d="M286.486,50.411c-2.023-1.97-4.096-3.888-6.219-5.755l-43.082,63.865c1.961,2.144,3.822,4.381,5.574,6.706
			L286.486,50.411z"/>
		<path fill="#FFFFFF" d="M294.41,58.683c-1.91-2.133-3.861-4.227-5.879-6.259l-44.006,65.233c1.752,2.489,3.389,5.063,4.887,7.727
			L294.41,58.683z"/>
	</g>
	<g>
		<path fill="#FFFFFF" d="M81.875,127.856l-6.566-10.124l-69.941,24.39c-0.723,4.284-1.305,8.616-1.691,13.005L81.875,127.856z"/>
		<path fill="#FFFFFF" d="M83.678,140.892c0.742-2.198,1.541-4.372,2.441-6.491l-3.584-5.524L3.59,156.406
			c-0.334,4.161-0.521,8.363-0.549,12.606L83.678,140.892z"/>
		<path fill="#FFFFFF" d="M80,155.842c0.721-4.637,1.801-9.154,3.195-13.53l-80.17,27.957c0.006,4.121,0.176,8.202,0.475,12.249
			L80,155.842z"/>
		<path fill="#FFFFFF" d="M64.594,299.114l-0.322,0.112c0.113,0.092,0.221,0.187,0.332,0.277L64.594,299.114z"/>
		<path fill="#FFFFFF" d="M79.887,183.211c-0.578-3.952-0.906-7.981-0.957-12.081L5.186,196.847
			c0.635,3.917,1.395,7.791,2.297,11.613L79.887,183.211z"/>
		<path fill="#FFFFFF" d="M63.885,272.03l-20.266,7.068c2.793,3.232,5.709,6.356,8.74,9.366l11.848-4.131L63.885,272.03z"/>
		<path fill="#FFFFFF" d="M67.42,105.567l-6.24-9.62l-48.176,17.062c-1.539,4.242-2.9,8.57-4.102,12.964L67.42,105.567z"/>
		<path fill="#FFFFFF" d="M74.646,116.714l-6.564-10.126L8.537,127.352c-1.166,4.415-2.162,8.898-2.967,13.45L74.646,116.714z"/>
		<path fill="#FFFFFF" d="M78.9,169.891c0.006-4.325,0.33-8.573,0.918-12.735L3.59,183.738c0.326,4.018,0.801,7.992,1.406,11.922
			L78.9,169.891z"/>
		<path fill="#FFFFFF" d="M63.854,270.791l-0.326-12.302L35.111,268.4c2.441,3.34,5.002,6.588,7.68,9.734L63.854,270.791z"/>
		<path fill="#FFFFFF" d="M64.562,297.874l-0.322-12.303l-10.945,3.817c3.186,3.115,6.496,6.101,9.922,8.954L64.562,297.874z"/>
		<path fill="#FFFFFF" d="M63.496,257.252l-0.125-4.764l47.957-12.818c-3.104-2.619-6.01-5.461-8.738-8.465l-74.914,26.123
			c2.117,3.443,4.354,6.805,6.709,10.076L63.496,257.252z"/>
		<path fill="#FFFFFF" d="M93.529,219.447c-2.156-3.322-4.125-6.775-5.84-10.377l-71.896,25.07
			c1.518,3.635,3.164,7.199,4.922,10.699L93.529,219.447z"/>
		<path fill="#FFFFFF" d="M87.207,207.986c-1.625-3.533-3.021-7.191-4.189-10.951l-71.717,25.007
			c1.225,3.728,2.58,7.396,4.053,11.001L87.207,207.986z"/>
		<path fill="#FFFFFF" d="M101.725,230.256c-2.727-3.086-5.238-6.355-7.531-9.789L21.25,245.902
			c1.812,3.541,3.746,7.006,5.795,10.396L101.725,230.256z"/>
		<path fill="#FFFFFF" d="M82.658,195.907c-1.107-3.739-1.979-7.581-2.604-11.505L7.766,209.609
			c0.932,3.822,1.984,7.596,3.17,11.309L82.658,195.907z"/>
	</g>
	<g>
		<path fill="#FFFFFF" d="M280.516,157.029l-4.812-1.851l-14.9,22.093c-0.309,3.872-0.855,7.676-1.633,11.396L280.516,157.029z"/>
		<path fill="#FFFFFF" d="M220.746,245.627c-0.666,0.448-1.338,0.893-2.018,1.325l-0.098,1.81L220.746,245.627z"/>
		<path fill="#FFFFFF" d="M258.543,148.579c0.059,0.247,0.1,0.5,0.158,0.748l0.369-0.546L258.543,148.579z"/>
		<path fill="#FFFFFF" d="M269.793,152.904l-4.812-1.85l-4.699,6.969c0.348,2.616,0.576,5.267,0.695,7.949L269.793,152.904z"/>
		<polygon fill="#FFFFFF" points="311.193,151.592 301.826,165.225 297.152,163.427 216.844,282.466 216.326,292.215 		"/>
		<path fill="#FFFFFF" d="M291.238,161.154l-4.812-1.852l-35.691,52.911c-3.129,5.958-6.896,11.524-11.211,16.614l-21.527,31.91
			l-0.516,9.748L291.238,161.154z"/>
		<path fill="#FFFFFF" d="M334.873,196.57c0.582-3.639,1.039-7.317,1.383-11.03l-81.561,120.895l5.051,1.495L334.873,196.57z"/>
		<path fill="#FFFFFF" d="M325.883,229.914c2.16-5.613,4.029-11.369,5.582-17.257l-61.375,90.978
			c4.869-3.652,9.529-7.568,13.967-11.721L325.883,229.914z"/>
		<path fill="#FFFFFF" d="M336.92,173.518c0.023-1.174,0.055-2.344,0.055-3.522c0-1.808-0.037-3.608-0.094-5.402L243.438,303.1
			l5.053,1.497L336.92,173.518z"/>
		<path fill="#FFFFFF" d="M220.926,296.435l5.049,1.493l107.904-159.945c-0.443-2.285-0.934-4.553-1.469-6.802L220.926,296.435z"/>
		<path fill="#FFFFFF" d="M336.24,154.506c-0.238-2.579-0.52-5.146-0.873-7.689L232.182,299.768l5.053,1.495L336.24,154.506z"/>
	</g>
	<g>
		<path fill="#FFFFFF" d="M128.27,250.967c-0.279-0.143-0.562-0.275-0.838-0.421v80.935c0.279,0.072,0.559,0.134,0.838,0.205
			V250.967z"/>
		<path fill="#FFFFFF" d="M130.178,251.926c-0.281-0.137-0.557-0.279-0.836-0.421v80.443c0.277,0.069,0.557,0.137,0.836,0.206
			V251.926z"/>
		<path fill="#FFFFFF" d="M133.992,253.681c-0.281-0.12-0.559-0.253-0.838-0.376v79.578c0.279,0.063,0.559,0.127,0.838,0.189
			V253.681z"/>
		<path fill="#FFFFFF" d="M126.363,249.949c-0.281-0.152-0.559-0.31-0.836-0.465v81.477c0.279,0.078,0.555,0.168,0.836,0.244
			V249.949z"/>
		<path fill="#FFFFFF" d="M132.086,252.824c-0.279-0.127-0.562-0.246-0.838-0.376v79.968c0.279,0.066,0.555,0.139,0.838,0.205
			V252.824z"/>
		<path fill="#FFFFFF" d="M118.736,245.271c-0.279-0.189-0.561-0.372-0.836-0.565v83.942c0.279,0.092,0.555,0.191,0.836,0.283
			V245.271z"/>
		<path fill="#FFFFFF" d="M116.83,243.941c-0.281-0.203-0.559-0.412-0.838-0.619v84.682c0.277,0.094,0.557,0.188,0.838,0.283
			V243.941z"/>
		<path fill="#FFFFFF" d="M124.457,248.887c-0.279-0.161-0.559-0.326-0.838-0.49v82.008c0.281,0.082,0.559,0.166,0.838,0.245
			V248.887z"/>
		<path fill="#FFFFFF" d="M112.178,326.668c0.283,0.104,0.557,0.221,0.838,0.324V241.03c-0.279-0.225-0.561-0.448-0.838-0.677
			V326.668z"/>
		<path fill="#FFFFFF" d="M135.896,254.469c-0.277-0.113-0.561-0.22-0.838-0.334v79.15c0.277,0.059,0.561,0.109,0.838,0.166V254.469
			z"/>
		<path fill="#FFFFFF" d="M122.551,247.738c-0.279-0.171-0.561-0.341-0.838-0.516v82.628c0.277,0.084,0.559,0.161,0.838,0.243
			V247.738z"/>
		<path fill="#FFFFFF" d="M120.643,246.561c-0.283-0.184-0.555-0.379-0.836-0.565v83.299c0.275,0.087,0.559,0.158,0.836,0.245
			V246.561z"/>
		<path fill="#FFFFFF" d="M160.684,260.607c-0.279-0.027-0.555-0.062-0.834-0.095v76.119c0.279,0.016,0.555,0.04,0.834,0.055
			V260.607z"/>
		<path fill="#FFFFFF" d="M154.965,259.84c-0.279-0.047-0.559-0.084-0.838-0.134v76.503c0.281,0.025,0.557,0.066,0.838,0.092V259.84
			z"/>
		<path fill="#FFFFFF" d="M153.059,259.51c-0.281-0.053-0.559-0.115-0.838-0.171v76.659c0.279,0.03,0.557,0.064,0.838,0.092V259.51z
			"/>
		<path fill="#FFFFFF" d="M156.873,260.142c-0.281-0.04-0.559-0.091-0.838-0.134v76.372c0.277,0.022,0.559,0.033,0.838,0.056
			V260.142z"/>
		<path fill="#FFFFFF" d="M158.779,260.393c-0.279-0.035-0.561-0.059-0.838-0.095v76.208c0.277,0.02,0.557,0.037,0.838,0.056
			V260.393z"/>
		<path fill="#FFFFFF" d="M151.152,259.12c-0.279-0.06-0.561-0.11-0.838-0.172v76.84c0.277,0.032,0.555,0.062,0.838,0.093V259.12z"
			/>
		<path fill="#FFFFFF" d="M114.922,242.532c-0.279-0.213-0.561-0.423-0.836-0.638v85.463c0.277,0.098,0.559,0.186,0.836,0.283
			V242.532z"/>
		<path fill="#FFFFFF" d="M145.432,257.732c-0.279-0.078-0.557-0.169-0.838-0.25v77.53c0.281,0.042,0.559,0.089,0.838,0.128V257.732
			z"/>
		<path fill="#FFFFFF" d="M143.523,257.162c-0.279-0.085-0.561-0.164-0.838-0.252v77.807c0.277,0.047,0.559,0.084,0.838,0.13
			V257.162z"/>
		<path fill="#FFFFFF" d="M149.244,258.709c-0.281-0.064-0.557-0.143-0.836-0.211v77.081c0.275,0.036,0.559,0.058,0.836,0.093
			V258.709z"/>
		<path fill="#FFFFFF" d="M139.713,255.912c-0.279-0.099-0.561-0.191-0.838-0.292v78.426c0.279,0.054,0.557,0.115,0.838,0.167
			V255.912z"/>
		<path fill="#FFFFFF" d="M141.617,256.574c-0.281-0.092-0.557-0.197-0.838-0.292v78.141c0.277,0.049,0.561,0.082,0.838,0.128
			V256.574z"/>
		<path fill="#FFFFFF" d="M137.805,255.227c-0.281-0.107-0.559-0.223-0.838-0.333v78.771c0.279,0.056,0.557,0.112,0.838,0.168
			V255.227z"/>
		<path fill="#FFFFFF" d="M147.34,258.229c-0.279-0.071-0.561-0.136-0.84-0.211v77.289c0.279,0.04,0.559,0.091,0.84,0.13V258.229z"
			/>
		<path fill="#FFFFFF" d="M109.203,240.238l-0.838,0.223v84.731c0.279,0.11,0.561,0.215,0.838,0.325V240.238z"/>
		<path fill="#FFFFFF" d="M86.32,246.354l-0.836,0.224v67.411c0.279,0.165,0.555,0.337,0.836,0.5V246.354z"/>
		<path fill="#FFFFFF" d="M76.789,248.902l-0.838,0.225v58.846c0.275,0.188,0.561,0.361,0.838,0.549V248.902z"/>
		<path fill="#FFFFFF" d="M80.602,247.883l-0.836,0.223v62.363c0.281,0.182,0.557,0.371,0.836,0.549V247.883z"/>
		<path fill="#FFFFFF" d="M78.695,248.393l-0.838,0.223v60.606c0.279,0.185,0.559,0.366,0.838,0.548V248.393z"/>
		<path fill="#FFFFFF" d="M82.51,247.373l-0.838,0.224v64.117c0.275,0.173,0.562,0.329,0.838,0.5V247.373z"/>
		<path fill="#FFFFFF" d="M84.414,246.863l-0.836,0.225v65.764c0.277,0.168,0.561,0.332,0.836,0.5V246.863z"/>
		<path fill="#FFFFFF" d="M111.109,239.729l-0.836,0.223v85.979c0.279,0.107,0.557,0.219,0.836,0.324V239.729z"/>
		<polygon fill="#FFFFFF" points="63.441,255.17 63.441,252.469 63.371,252.488 		"/>
		<path fill="#FFFFFF" d="M67.256,251.449l-0.838,0.225v49.247c0.279,0.22,0.559,0.436,0.838,0.653V251.449z"/>
		<path fill="#FFFFFF" d="M65.348,300.086V251.96l-0.836,0.224v43.768l0.092,3.553C64.848,299.703,65.104,299.888,65.348,300.086z"
			/>
		<path fill="#FFFFFF" d="M71.068,250.431l-0.838,0.224v53.234c0.275,0.205,0.561,0.396,0.838,0.6V250.431z"/>
		<path fill="#FFFFFF" d="M72.977,249.92l-0.838,0.225v55.109c0.277,0.203,0.559,0.4,0.838,0.601V249.92z"/>
		<path fill="#FFFFFF" d="M69.16,250.941l-0.838,0.223v51.243c0.281,0.218,0.555,0.44,0.838,0.655V250.941z"/>
		<path fill="#FFFFFF" d="M74.883,249.411l-0.84,0.224v56.984c0.283,0.197,0.555,0.403,0.84,0.6V249.411z"/>
		<path fill="#FFFFFF" d="M99.67,242.785l-0.836,0.225v78.05c0.281,0.134,0.555,0.278,0.836,0.409V242.785z"/>
		<path fill="#FFFFFF" d="M103.482,241.767l-0.838,0.223v80.798c0.277,0.123,0.557,0.244,0.838,0.365V241.767z"/>
		<path fill="#FFFFFF" d="M101.578,242.275l-0.84,0.225v79.455c0.277,0.127,0.561,0.24,0.84,0.365V242.275z"/>
		<path fill="#FFFFFF" d="M105.389,241.258l-0.838,0.223v82.139c0.281,0.12,0.559,0.248,0.838,0.367V241.258z"/>
		<path fill="#FFFFFF" d="M162.594,260.783c-0.279-0.023-0.561-0.031-0.838-0.057v76.031c0.279,0.014,0.555,0.04,0.838,0.053
			V260.783z"/>
		<path fill="#FFFFFF" d="M107.297,240.747l-0.838,0.224v83.481c0.275,0.113,0.559,0.214,0.838,0.326V240.747z"/>
		<path fill="#FFFFFF" d="M93.949,244.314l-0.836,0.225v73.695c0.277,0.146,0.555,0.297,0.836,0.441V244.314z"/>
		<path fill="#FFFFFF" d="M92.043,244.824l-0.838,0.223v72.156c0.279,0.148,0.555,0.305,0.838,0.452V244.824z"/>
		<path fill="#FFFFFF" d="M90.137,245.334l-0.838,0.225v70.611c0.277,0.152,0.559,0.301,0.838,0.453V245.334z"/>
		<path fill="#FFFFFF" d="M88.229,245.844l-0.838,0.225v69.059c0.277,0.158,0.559,0.308,0.838,0.464V245.844z"/>
		<path fill="#FFFFFF" d="M97.762,243.296l-0.838,0.224v76.608c0.279,0.137,0.559,0.274,0.838,0.409V243.296z"/>
		<path fill="#FFFFFF" d="M95.855,243.805l-0.836,0.225v75.169c0.277,0.14,0.559,0.271,0.836,0.409V243.805z"/>
		<path fill="#FFFFFF" d="M195.006,257.598c-0.279,0.08-0.559,0.155-0.838,0.231v77.39c0.279-0.041,0.559-0.069,0.838-0.111V257.598
			z"/>
		<path fill="#FFFFFF" d="M231.234,299.486l-0.838-0.248v26.463c0.279-0.109,0.557-0.217,0.838-0.328V299.486z"/>
		<path fill="#FFFFFF" d="M229.326,298.922l-0.836-0.248v27.733c0.277-0.104,0.559-0.204,0.836-0.31V298.922z"/>
		<path fill="#FFFFFF" d="M233.141,300.051l-0.836-0.248v25.129c0.279-0.112,0.557-0.23,0.836-0.344V300.051z"/>
		<path fill="#FFFFFF" d="M227.42,298.356l-0.836-0.247v29.005c0.279-0.101,0.557-0.208,0.836-0.312V298.356z"/>
		<path fill="#FFFFFF" d="M236.953,301.18l-0.838-0.248v22.428c0.281-0.121,0.559-0.246,0.838-0.369V301.18z"/>
		<path fill="#FFFFFF" d="M235.049,300.615l-0.838-0.248v23.777c0.279-0.115,0.559-0.227,0.838-0.344V300.615z"/>
		<path fill="#FFFFFF" d="M225.514,297.793l-0.838-0.249v30.257c0.279-0.096,0.559-0.191,0.838-0.291V297.793z"/>
		<path fill="#FFFFFF" d="M217.889,295.533l-0.84-0.246v34.934c0.279-0.082,0.561-0.158,0.84-0.242V295.533z"/>
		<path fill="#FFFFFF" d="M219.795,296.099l-0.84-0.248v33.819c0.279-0.085,0.561-0.174,0.84-0.262V296.099z"/>
		<path fill="#FFFFFF" d="M217.889,247.466c-0.279,0.171-0.561,0.341-0.84,0.511v30.615l0.84-15.789V247.466z"/>
		<path fill="#FFFFFF" d="M223.607,297.229l-0.836-0.249v31.45c0.277-0.094,0.559-0.181,0.836-0.275V297.229z"/>
		<path fill="#FFFFFF" d="M221.701,296.663l-0.838-0.248v32.642c0.279-0.09,0.559-0.184,0.838-0.275V296.663z"/>
		<path fill="#FFFFFF" d="M215.98,248.627c-0.275,0.162-0.561,0.313-0.838,0.473v81.672c0.279-0.079,0.559-0.162,0.838-0.242
			V248.627z"/>
		<path fill="#FFFFFF" d="M238.859,301.744l-0.838-0.248v21.008c0.281-0.127,0.559-0.256,0.838-0.383V301.744z"/>
		<path fill="#FFFFFF" d="M256.021,306.826l-0.836-0.248v7.021c0.279-0.165,0.561-0.329,0.836-0.497V306.826z"/>
		<path fill="#FFFFFF" d="M254.115,306.263l-0.838-0.248v8.718c0.281-0.162,0.557-0.335,0.838-0.498V306.263z"/>
		<path fill="#FFFFFF" d="M257.928,307.391l-0.838-0.248v5.324c0.279-0.171,0.562-0.336,0.838-0.508V307.391z"/>
		<path fill="#FFFFFF" d="M259.836,307.956l-0.838-0.248v3.563c0.279-0.178,0.557-0.361,0.838-0.54V307.956z"/>
		<path fill="#FFFFFF" d="M164.5,260.912c-0.279-0.016-0.559-0.037-0.838-0.057v75.979c0.279,0.01,0.559,0.009,0.838,0.02V260.912z"
			/>
		<path fill="#FFFFFF" d="M261.742,308.52l-0.836-0.247v1.771c0.275-0.182,0.561-0.357,0.836-0.539V308.52z"/>
		<path fill="#FFFFFF" d="M240.768,302.309l-0.838-0.246v19.571c0.279-0.129,0.559-0.252,0.838-0.382V302.309z"/>
		<path fill="#FFFFFF" d="M250.303,305.133l-0.838-0.248v11.965c0.277-0.151,0.559-0.304,0.838-0.457V305.133z"/>
		<path fill="#FFFFFF" d="M242.674,302.873l-0.838-0.247v18.138c0.281-0.134,0.555-0.279,0.838-0.415V302.873z"/>
		<path fill="#FFFFFF" d="M244.58,303.439l-0.836-0.248v16.622c0.281-0.14,0.557-0.28,0.836-0.421V303.439z"/>
		<path fill="#FFFFFF" d="M246.486,304.004l-0.836-0.248v15.103c0.277-0.143,0.561-0.276,0.836-0.419V304.004z"/>
		<path fill="#FFFFFF" d="M248.395,304.568l-0.838-0.248v13.572c0.283-0.148,0.559-0.309,0.838-0.457V304.568z"/>
		<path fill="#FFFFFF" d="M252.209,305.697l-0.838-0.248v10.358c0.279-0.155,0.561-0.302,0.838-0.458V305.697z"/>
		<path fill="#FFFFFF" d="M175.939,260.895c-0.279,0.018-0.561,0.029-0.84,0.045v75.938c0.279-0.009,0.561-0.006,0.84-0.016V260.895
			z"/>
		<path fill="#FFFFFF" d="M179.752,260.576c-0.277,0.029-0.561,0.047-0.838,0.074v76.061c0.279-0.016,0.559-0.033,0.838-0.048
			V260.576z"/>
		<path fill="#FFFFFF" d="M177.846,260.748c-0.279,0.023-0.561,0.055-0.84,0.075v75.995c0.279-0.013,0.561-0.035,0.84-0.047V260.748
			z"/>
		<path fill="#FFFFFF" d="M181.658,260.339c-0.279,0.036-0.557,0.074-0.836,0.107v76.155c0.277-0.017,0.559-0.027,0.836-0.047
			V260.339z"/>
		<path fill="#FFFFFF" d="M185.473,259.771c-0.277,0.048-0.559,0.091-0.838,0.137v76.407c0.279-0.024,0.557-0.053,0.838-0.078
			V259.771z"/>
		<path fill="#FFFFFF" d="M183.566,260.084c-0.279,0.041-0.559,0.08-0.838,0.119v76.291c0.281-0.021,0.559-0.057,0.838-0.078
			V260.084z"/>
		<path fill="#FFFFFF" d="M187.381,259.421c-0.279,0.054-0.559,0.118-0.84,0.169v76.545c0.279-0.028,0.561-0.051,0.84-0.08V259.421z
			"/>
		<path fill="#FFFFFF" d="M166.404,261.016c-0.279-0.011-0.559-0.018-0.836-0.031v75.891c0.279,0.008,0.557,0.013,0.836,0.02
			V261.016z"/>
		<path fill="#FFFFFF" d="M168.311,261.059c-0.277-0.006-0.557-0.012-0.836-0.02v75.879c0.279,0.004,0.559,0.015,0.836,0.018
			V261.059z"/>
		<path fill="#FFFFFF" d="M170.219,336.969v-75.877c-0.072,0-0.146,0.005-0.221,0.005c-0.205,0-0.412-0.013-0.617-0.015v75.877
			c0.205,0.001,0.412,0.014,0.617,0.014C170.072,336.973,170.146,336.969,170.219,336.969z"/>
		<path fill="#FFFFFF" d="M172.125,261.058c-0.279,0.007-0.557,0.013-0.838,0.015v75.876c0.281-0.002,0.559-0.013,0.838-0.016
			V261.058z"/>
		<path fill="#FFFFFF" d="M174.031,260.998c-0.277,0.012-0.557,0.029-0.836,0.041v75.873c0.279-0.005,0.559-0.01,0.836-0.015
			V260.998z"/>
		<path fill="#FFFFFF" d="M212.166,250.729c-0.277,0.146-0.559,0.293-0.838,0.437v80.623c0.279-0.07,0.561-0.136,0.838-0.208
			V250.729z"/>
		<path fill="#FFFFFF" d="M206.447,253.475c-0.277,0.123-0.557,0.246-0.838,0.365v79.301c0.279-0.061,0.561-0.114,0.838-0.176
			V253.475z"/>
		<path fill="#FFFFFF" d="M208.354,252.617c-0.279,0.131-0.555,0.265-0.836,0.393v79.729c0.281-0.064,0.557-0.143,0.836-0.209
			V252.617z"/>
		<path fill="#FFFFFF" d="M202.633,255.046c-0.279,0.108-0.555,0.224-0.836,0.328v78.565c0.281-0.053,0.557-0.119,0.836-0.176
			V255.046z"/>
		<path fill="#FFFFFF" d="M204.541,254.295c-0.277,0.113-0.559,0.219-0.838,0.33v78.914c0.279-0.056,0.559-0.116,0.838-0.175
			V254.295z"/>
		<path fill="#FFFFFF" d="M210.26,251.71c-0.277,0.137-0.559,0.265-0.838,0.398v80.155c0.281-0.068,0.559-0.139,0.838-0.209V251.71z
			"/>
		<path fill="#FFFFFF" d="M214.072,249.704c-0.279,0.155-0.555,0.317-0.836,0.468v81.143c0.281-0.075,0.557-0.159,0.836-0.234
			V249.704z"/>
		<path fill="#FFFFFF" d="M191.193,258.594c-0.281,0.066-0.557,0.136-0.836,0.2v76.931c0.279-0.035,0.555-0.076,0.836-0.111V258.594
			z"/>
		<path fill="#FFFFFF" d="M189.287,259.039c-0.279,0.06-0.561,0.109-0.838,0.168v76.746c0.277-0.029,0.559-0.055,0.838-0.088
			V259.039z"/>
		<path fill="#FFFFFF" d="M193.1,258.125c-0.279,0.073-0.559,0.145-0.838,0.215v77.131c0.279-0.037,0.559-0.071,0.838-0.11V258.125z
			"/>
		<path fill="#FFFFFF" d="M198.818,256.428c-0.275,0.092-0.559,0.174-0.836,0.264v77.916c0.279-0.047,0.557-0.094,0.836-0.143
			V256.428z"/>
		<path fill="#FFFFFF" d="M200.727,255.754c-0.279,0.1-0.559,0.197-0.838,0.297v78.231c0.279-0.051,0.559-0.092,0.838-0.144V255.754
			z"/>
		<path fill="#FFFFFF" d="M196.912,257.028c-0.279,0.086-0.557,0.179-0.836,0.263v77.644c0.279-0.045,0.557-0.099,0.836-0.144
			V257.028z"/>
	</g>
</g>
</svg>
