<?xml version="1.0" encoding="utf-8"?>
<!-- Generator: Adobe Illustrator 16.0.0, SVG Export Plug-In . SVG Version: 6.00 Build 0)  -->
<!DOCTYPE svg PUBLIC "-//W3C//DTD SVG 1.1//EN" "http://www.w3.org/Graphics/SVG/1.1/DTD/svg11.dtd">
<svg version="1.1" id="Layer_1" xmlns="http://www.w3.org/2000/svg" xmlns:xlink="http://www.w3.org/1999/xlink" x="0px" y="0px"
	 width="80px" height="80px" viewBox="0 0 80 80" enable-background="new 0 0 80 80" xml:space="preserve">
<g>
	<g>
		<defs>
			<path id="SVGID_1_" d="M15.716,42.525c0,13.211,10.71,23.92,23.919,23.92V18.608C26.427,18.608,15.716,29.316,15.716,42.525z"/>
		</defs>
		<clipPath id="SVGID_2_">
			<use xlink:href="#SVGID_1_"  overflow="visible"/>
		</clipPath>
		<g clip-path="url(#SVGID_2_)">
			<line fill="none" stroke="#5E3821" stroke-miterlimit="10" x1="34.399" y1="-9.487" x2="-8.873" y2="33.785"/>
			<line fill="none" stroke="#5E3821" stroke-miterlimit="10" x1="36.353" y1="-7.533" x2="-6.919" y2="35.739"/>
			<line fill="none" stroke="#5E3821" stroke-miterlimit="10" x1="38.307" y1="-5.579" x2="-4.965" y2="37.692"/>
			<line fill="none" stroke="#5E3821" stroke-miterlimit="10" x1="40.26" y1="-3.625" x2="-3.012" y2="39.646"/>
			<line fill="none" stroke="#5E3821" stroke-miterlimit="10" x1="42.214" y1="-1.671" x2="-1.058" y2="41.6"/>
			<line fill="none" stroke="#5E3821" stroke-miterlimit="10" x1="44.168" y1="0.283" x2="0.896" y2="43.554"/>
			<line fill="none" stroke="#5E3821" stroke-miterlimit="10" x1="46.121" y1="2.236" x2="2.85" y2="45.508"/>
			<line fill="none" stroke="#5E3821" stroke-miterlimit="10" x1="48.075" y1="4.19" x2="4.803" y2="47.461"/>
			<line fill="none" stroke="#5E3821" stroke-miterlimit="10" x1="50.029" y1="6.144" x2="6.758" y2="49.415"/>
			<line fill="none" stroke="#5E3821" stroke-miterlimit="10" x1="51.983" y1="8.098" x2="8.712" y2="51.369"/>
			<line fill="none" stroke="#5E3821" stroke-miterlimit="10" x1="53.937" y1="10.052" x2="10.665" y2="53.323"/>
			<line fill="none" stroke="#5E3821" stroke-miterlimit="10" x1="55.891" y1="12.005" x2="12.619" y2="55.276"/>
			<line fill="none" stroke="#5E3821" stroke-miterlimit="10" x1="57.845" y1="13.959" x2="14.573" y2="57.23"/>
			<line fill="none" stroke="#5E3821" stroke-miterlimit="10" x1="59.799" y1="15.913" x2="16.527" y2="59.185"/>
			<line fill="none" stroke="#5E3821" stroke-miterlimit="10" x1="61.752" y1="17.867" x2="18.48" y2="61.139"/>
			<line fill="none" stroke="#5E3821" stroke-miterlimit="10" x1="63.705" y1="19.82" x2="20.435" y2="63.092"/>
			<line fill="none" stroke="#5E3821" stroke-miterlimit="10" x1="65.66" y1="21.774" x2="22.388" y2="65.046"/>
			<line fill="none" stroke="#5E3821" stroke-miterlimit="10" x1="67.613" y1="23.729" x2="24.342" y2="67"/>
			<line fill="none" stroke="#5E3821" stroke-miterlimit="10" x1="69.567" y1="25.683" x2="26.296" y2="68.954"/>
			<line fill="none" stroke="#5E3821" stroke-miterlimit="10" x1="71.521" y1="27.636" x2="28.25" y2="70.907"/>
			<line fill="none" stroke="#5E3821" stroke-miterlimit="10" x1="73.475" y1="29.59" x2="30.204" y2="72.861"/>
			<line fill="none" stroke="#5E3821" stroke-miterlimit="10" x1="75.429" y1="31.544" x2="32.157" y2="74.815"/>
			<line fill="none" stroke="#5E3821" stroke-miterlimit="10" x1="77.383" y1="33.498" x2="34.111" y2="76.769"/>
			<line fill="none" stroke="#5E3821" stroke-miterlimit="10" x1="79.336" y1="35.452" x2="36.065" y2="78.723"/>
			<line fill="none" stroke="#5E3821" stroke-miterlimit="10" x1="81.29" y1="37.405" x2="38.019" y2="80.677"/>
			<line fill="none" stroke="#5E3821" stroke-miterlimit="10" x1="83.244" y1="39.359" x2="39.973" y2="82.631"/>
			<line fill="none" stroke="#5E3821" stroke-miterlimit="10" x1="85.197" y1="41.312" x2="41.927" y2="84.584"/>
			<line fill="none" stroke="#5E3821" stroke-miterlimit="10" x1="87.152" y1="43.267" x2="43.881" y2="86.538"/>
			<line fill="none" stroke="#5E3821" stroke-miterlimit="10" x1="89.105" y1="45.221" x2="45.834" y2="88.492"/>
			<line fill="none" stroke="#5E3821" stroke-miterlimit="10" x1="91.059" y1="47.174" x2="47.788" y2="90.446"/>
			<line fill="none" stroke="#5E3821" stroke-miterlimit="10" x1="93.014" y1="49.128" x2="49.742" y2="92.399"/>
			<line fill="none" stroke="#5E3821" stroke-miterlimit="10" x1="94.967" y1="51.082" x2="51.695" y2="94.354"/>
		</g>
	</g>
	<path fill="#5E3821" d="M27.882,12.774c2.756,3.214,6.958,4.681,11.624,4.489c0.883-4.6,0.064-8.986-2.693-12.198
		C34.06,1.851,29.855,0.384,25.19,0.576C24.307,5.174,25.125,9.562,27.882,12.774z"/>
	<path fill="#5E3821" d="M57.584,52.771c0-0.4,0.08-0.783,0.221-1.135c-0.072,0.006-0.146,0.01-0.221,0.01
		c-1.678,0-3.039-1.359-3.039-3.037c0-0.822,0.33-1.568,0.859-2.115c-1.331-0.322-2.32-1.52-2.32-2.949
		c0-1.023,0.506-1.926,1.28-2.477c-0.774-0.549-1.28-1.453-1.28-2.475c0-1.431,0.989-2.627,2.32-2.95
		c-0.529-0.547-0.859-1.291-0.859-2.113c0-1.678,1.361-3.039,3.039-3.039c0.074,0,0.148,0.006,0.221,0.012
		c-0.141-0.352-0.221-0.734-0.221-1.137c0-0.707,0.244-1.356,0.649-1.873c-4.385-5.418-11.087-8.884-18.598-8.884v47.836
		c8.366,0,15.723-4.297,19.998-10.803C58.441,55.232,57.584,54.104,57.584,52.771z"/>
	
		<line fill="none" stroke="#FFFFFF" stroke-width="0.4907" stroke-miterlimit="10" x1="39.893" y1="17.987" x2="24.803" y2="0.014"/>
	<path fill="none" stroke="#FFFFFF" stroke-width="4.4167" stroke-linecap="round" stroke-miterlimit="10" d="M24.578,32.077
		c2.625-4.125,6.673-6.797,11.098-7.78"/>
</g>
</svg>
