<?xml version="1.0" encoding="utf-8"?>
<!-- Generator: Adobe Illustrator 16.0.0, SVG Export Plug-In . SVG Version: 6.00 Build 0)  -->
<!DOCTYPE svg PUBLIC "-//W3C//DTD SVG 1.1//EN" "http://www.w3.org/Graphics/SVG/1.1/DTD/svg11.dtd">
<svg version="1.1" id="Layer_1" xmlns="http://www.w3.org/2000/svg" xmlns:xlink="http://www.w3.org/1999/xlink" x="0px" y="0px"
	 width="80px" height="80px" viewBox="0 0 80 80" enable-background="new 0 0 80 80" xml:space="preserve">
<path fill="#5E3821" d="M40.342,61.702c8.947-7.086,14.693-18.037,14.693-30.338c0-12.3-5.746-23.251-14.693-30.338"/>
<line fill="none" stroke="#5E3821" stroke-width="2" stroke-miterlimit="10" x1="39.342" y1="61.702" x2="39.342" y2="79"/>
<line fill="none" stroke="#FFFFFF" stroke-width="2" stroke-miterlimit="10" x1="44.729" y1="13.126" x2="38.115" y2="20.126"/>
<line fill="none" stroke="#FFFFFF" stroke-width="2" stroke-miterlimit="10" x1="49.396" y1="27.46" x2="39.115" y2="34.46"/>
<line fill="none" stroke="#FFFFFF" stroke-width="2" stroke-miterlimit="10" x1="39.115" y1="48.126" x2="46.461" y2="39.794"/>
<g>
	<defs>
		<path id="SVGID_1_" d="M38.342,1.026c-8.946,7.087-14.692,18.038-14.692,30.338c0,12.301,5.746,23.252,14.692,30.338V1.026z"/>
	</defs>
	<clipPath id="SVGID_2_">
		<use xlink:href="#SVGID_1_"  overflow="visible"/>
	</clipPath>
	<g clip-path="url(#SVGID_2_)">
		<line fill="none" stroke="#5E3821" stroke-miterlimit="10" x1="34.526" y1="-19.199" x2="-32.498" y2="47.825"/>
		<line fill="none" stroke="#5E3821" stroke-miterlimit="10" x1="36.258" y1="-17.468" x2="-30.767" y2="49.556"/>
		<line fill="none" stroke="#5E3821" stroke-miterlimit="10" x1="37.988" y1="-15.737" x2="-29.036" y2="51.287"/>
		<line fill="none" stroke="#5E3821" stroke-miterlimit="10" x1="39.719" y1="-14.006" x2="-27.306" y2="53.018"/>
		<line fill="none" stroke="#5E3821" stroke-miterlimit="10" x1="41.45" y1="-12.275" x2="-25.574" y2="54.749"/>
		<line fill="none" stroke="#5E3821" stroke-miterlimit="10" x1="43.182" y1="-10.544" x2="-23.844" y2="56.479"/>
		<line fill="none" stroke="#5E3821" stroke-miterlimit="10" x1="44.912" y1="-8.813" x2="-22.113" y2="58.211"/>
		<line fill="none" stroke="#5E3821" stroke-miterlimit="10" x1="46.642" y1="-7.083" x2="-20.382" y2="59.941"/>
		<line fill="none" stroke="#5E3821" stroke-miterlimit="10" x1="48.373" y1="-5.352" x2="-18.65" y2="61.673"/>
		<line fill="none" stroke="#5E3821" stroke-miterlimit="10" x1="50.104" y1="-3.621" x2="-16.92" y2="63.403"/>
		<line fill="none" stroke="#5E3821" stroke-miterlimit="10" x1="51.835" y1="-1.89" x2="-15.189" y2="65.135"/>
		<line fill="none" stroke="#5E3821" stroke-miterlimit="10" x1="53.565" y1="-0.159" x2="-13.459" y2="66.865"/>
		<line fill="none" stroke="#5E3821" stroke-miterlimit="10" x1="55.297" y1="1.571" x2="-11.728" y2="68.596"/>
		<line fill="none" stroke="#5E3821" stroke-miterlimit="10" x1="57.028" y1="3.303" x2="-9.996" y2="70.327"/>
		<line fill="none" stroke="#5E3821" stroke-miterlimit="10" x1="58.759" y1="5.033" x2="-8.266" y2="72.058"/>
		<line fill="none" stroke="#5E3821" stroke-miterlimit="10" x1="60.489" y1="6.764" x2="-6.535" y2="73.788"/>
		<line fill="none" stroke="#5E3821" stroke-miterlimit="10" x1="62.221" y1="8.495" x2="-4.805" y2="75.52"/>
		<line fill="none" stroke="#5E3821" stroke-miterlimit="10" x1="63.951" y1="10.226" x2="-3.073" y2="77.251"/>
		<line fill="none" stroke="#5E3821" stroke-miterlimit="10" x1="65.682" y1="11.957" x2="-1.342" y2="78.981"/>
		<line fill="none" stroke="#5E3821" stroke-miterlimit="10" x1="67.413" y1="13.688" x2="0.389" y2="80.713"/>
		<line fill="none" stroke="#5E3821" stroke-miterlimit="10" x1="69.144" y1="15.418" x2="2.119" y2="82.443"/>
		<line fill="none" stroke="#5E3821" stroke-miterlimit="10" x1="70.875" y1="17.149" x2="3.85" y2="84.174"/>
		<line fill="none" stroke="#5E3821" stroke-miterlimit="10" x1="72.605" y1="18.88" x2="5.582" y2="85.905"/>
		<line fill="none" stroke="#5E3821" stroke-miterlimit="10" x1="74.336" y1="20.611" x2="7.312" y2="87.636"/>
		<line fill="none" stroke="#5E3821" stroke-miterlimit="10" x1="76.067" y1="22.342" x2="9.043" y2="89.367"/>
		<line fill="none" stroke="#5E3821" stroke-miterlimit="10" x1="77.799" y1="24.073" x2="10.774" y2="91.098"/>
		<line fill="none" stroke="#5E3821" stroke-miterlimit="10" x1="79.529" y1="25.804" x2="12.505" y2="92.829"/>
		<line fill="none" stroke="#5E3821" stroke-miterlimit="10" x1="81.26" y1="27.534" x2="14.235" y2="94.56"/>
		<line fill="none" stroke="#5E3821" stroke-miterlimit="10" x1="82.991" y1="29.266" x2="15.967" y2="96.291"/>
		<line fill="none" stroke="#5E3821" stroke-miterlimit="10" x1="84.723" y1="30.996" x2="17.697" y2="98.021"/>
		<line fill="none" stroke="#5E3821" stroke-miterlimit="10" x1="86.453" y1="32.728" x2="19.428" y2="99.753"/>
		<line fill="none" stroke="#5E3821" stroke-miterlimit="10" x1="88.184" y1="34.458" x2="21.159" y2="101.483"/>
	</g>
</g>
<g>
	<defs>
		<path id="SVGID_3_" d="M38.342,1.026c-8.946,7.087-14.692,18.038-14.692,30.338c0,12.301,5.746,23.252,14.692,30.338V1.026z"/>
	</defs>
	<clipPath id="SVGID_4_">
		<use xlink:href="#SVGID_3_"  overflow="visible"/>
	</clipPath>
	<path clip-path="url(#SVGID_4_)" fill="none" stroke="#5E3821" stroke-width="2" stroke-miterlimit="10" d="M33.729,13.126l6.613,7
		 M29.062,27.46l10.28,7 M39.342,48.126l-7.346-8.332"/>
</g>
</svg>
